<svg xmlns="http://www.w3.org/2000/svg" width="220" height="60" viewBox="0 0 220 60" fill="none"><path fill-rule="evenodd" clip-rule="evenodd" d="M73.4106 37.0324L97.6815 7.78772H68.8378C67.276 7.78772 67.2127 8.89926 67.2127 8.89926L66.671 12.8741H84.4416L60.0933 42.6253H96.6755C96.8132 42.6337 96.951 42.6116 97.0792 42.5605C97.2073 42.5094 97.3226 42.4306 97.4167 42.3298C97.5108 42.2289 97.5815 42.1085 97.6236 41.9772C97.6657 41.8458 97.6783 41.7068 97.6604 41.57V37.0324H73.4106Z" fill="#F59C00"></path><path fill-rule="evenodd" clip-rule="evenodd" d="M178.972 7.88626H172.907C172.699 7.85784 172.488 7.8722 172.286 7.92847C172.083 7.98473 171.895 8.08171 171.732 8.21346C171.568 8.34521 171.433 8.50895 171.336 8.69464C171.238 8.88032 171.179 9.08403 171.163 9.29327L166.899 40.6977C166.899 40.6977 166.569 42.7309 168.405 42.7309H187.927L188.631 37.1521H174.933L178.972 7.88626Z" fill="#0E2050"></path><path fill-rule="evenodd" clip-rule="evenodd" d="M201.723 37.1803L203.13 27.4016H216.567L217.27 22.3152H203.812L205.086 13.029H219.296L220 7.94263H200.717C197.973 7.94263 197.854 10.222 197.854 10.222L193.766 40.3601C193.695 40.6639 193.697 40.9804 193.773 41.2831C193.849 41.5858 193.997 41.8658 194.203 42.0995C194.41 42.3333 194.67 42.5139 194.961 42.6262C195.253 42.7385 195.567 42.7793 195.877 42.745H215.892L216.595 37.1944L201.723 37.1803Z" fill="#0E2050"></path><path fill-rule="evenodd" clip-rule="evenodd" d="M52.0947 36.7862C49.9922 37.6755 47.721 38.0956 45.4395 38.0174C40.9723 38.0174 39.1572 36.1179 39.9452 30.321L43.0054 7.80887H36.5613C36.3922 7.80132 36.2233 7.82718 36.0642 7.88499C35.9051 7.9428 35.7589 8.03142 35.6341 8.14577C35.5093 8.26013 35.4083 8.39797 35.3368 8.55141C35.2653 8.70485 35.2248 8.87089 35.2176 9.04L32.3121 30.3562C31.0669 39.544 36.8919 43.1389 44.7501 43.1389C54.5992 43.1389 59.3338 39.6214 59.3338 39.6214L63.6603 7.7948H56.0343L52.0947 36.7862Z" fill="#F59C00"></path><path fill-rule="evenodd" clip-rule="evenodd" d="M118.759 7.823L111.773 21.3655V37.532L126.617 7.823H118.759Z" fill="#0E2050"></path><path fill-rule="evenodd" clip-rule="evenodd" d="M101.178 59.6009L109.135 42.8294V7.94963H109.205V7.823H101.178V59.6009Z" fill="#0E2050"></path><path fill-rule="evenodd" clip-rule="evenodd" d="M152.541 7.88633H146.477C146.269 7.85894 146.057 7.874 145.855 7.9306C145.653 7.9872 145.464 8.08416 145.3 8.21564C145.137 8.34712 145.001 8.5104 144.902 8.69562C144.803 8.88084 144.743 9.08417 144.725 9.29334L140.469 40.6978C140.469 40.6978 140.145 42.7309 141.967 42.7309H161.497L162.2 37.1521H148.496L152.541 7.88633Z" fill="#0E2050"></path><path fill-rule="evenodd" clip-rule="evenodd" d="M139.174 7.88626H133.103C132.895 7.85784 132.684 7.8722 132.481 7.92847C132.279 7.98473 132.091 8.08171 131.927 8.21346C131.764 8.34521 131.629 8.50895 131.531 8.69464C131.433 8.88032 131.375 9.08403 131.358 9.29327L127.137 40.6555C127.137 40.6555 126.807 42.6886 128.636 42.6886H134.503L139.174 7.88626Z" fill="#0E2050"></path><path fill-rule="evenodd" clip-rule="evenodd" d="M32.5583 41.0143C31.3797 39.4783 30.5556 37.7005 30.1452 35.8084H10.8622L15.7867 0H8.3788C6.26828 0 6.26828 1.75173 6.26828 1.75173L1.06235 39.9942C1.06235 39.9942 0.661351 42.4776 2.8985 42.4776H34.1904C33.5991 42.0348 33.0525 41.5353 32.5583 40.9862" fill="#F59C00"></path><path d="M96.8937 46.6705H0V48.2112H96.8937V46.6705Z" fill="#1D1D1B"></path><path d="M215.814 46.6705H115.171V48.2112H215.814V46.6705Z" fill="#1D1D1B"></path></svg>